<mxfile host="app.diagrams.net" agent="Mozilla/5.0 (Macintosh; Intel Mac OS X 10_15_7) AppleWebKit/605.1.15 (KHTML, like Gecko) Version/17.4.1 Safari/605.1.15" version="24.7.12">
  <diagram name="Page-1" id="58cdce13-f638-feb5-8d6f-7d28b1aa9fa0">
    <mxGraphModel dx="410" dy="253" grid="1" gridSize="10" guides="1" tooltips="1" connect="1" arrows="1" fold="1" page="1" pageScale="1" pageWidth="1100" pageHeight="850" background="none" math="0" shadow="0">
      <root>
        <mxCell id="0" />
        <mxCell id="1" parent="0" />
        <mxCell id="2a3bc250acf0617d-7" value="&lt;blockquote style=&quot;margin: 0 0 0 40px; border: none; padding: 0px;&quot;&gt;GroundedState&lt;/blockquote&gt;" style="swimlane;whiteSpace=wrap;html=1;rounded=1;shadow=0;comic=0;labelBackgroundColor=none;strokeWidth=1;fontFamily=Verdana;fontSize=12;align=center;" parent="1" vertex="1">
          <mxGeometry x="60" y="50" width="370" height="220" as="geometry" />
        </mxCell>
        <mxCell id="DqPGgn72jeOy-Wrfr4Ys-1" value="Idle" style="rounded=0;whiteSpace=wrap;html=1;" vertex="1" parent="2a3bc250acf0617d-7">
          <mxGeometry x="30" y="85" width="80" height="50" as="geometry" />
        </mxCell>
        <mxCell id="DqPGgn72jeOy-Wrfr4Ys-2" value="Move" style="rounded=0;whiteSpace=wrap;html=1;" vertex="1" parent="2a3bc250acf0617d-7">
          <mxGeometry x="260" y="85" width="80" height="50" as="geometry" />
        </mxCell>
        <mxCell id="DqPGgn72jeOy-Wrfr4Ys-3" value="" style="endArrow=classic;html=1;rounded=0;exitX=1;exitY=0.25;exitDx=0;exitDy=0;entryX=0;entryY=0.25;entryDx=0;entryDy=0;" edge="1" parent="2a3bc250acf0617d-7" source="DqPGgn72jeOy-Wrfr4Ys-1" target="DqPGgn72jeOy-Wrfr4Ys-2">
          <mxGeometry width="50" height="50" relative="1" as="geometry">
            <mxPoint x="500" y="260" as="sourcePoint" />
            <mxPoint x="550" y="210" as="targetPoint" />
          </mxGeometry>
        </mxCell>
        <mxCell id="DqPGgn72jeOy-Wrfr4Ys-4" value="" style="endArrow=classic;html=1;rounded=0;exitX=0;exitY=0.75;exitDx=0;exitDy=0;entryX=1;entryY=0.75;entryDx=0;entryDy=0;" edge="1" parent="2a3bc250acf0617d-7" source="DqPGgn72jeOy-Wrfr4Ys-2" target="DqPGgn72jeOy-Wrfr4Ys-1">
          <mxGeometry width="50" height="50" relative="1" as="geometry">
            <mxPoint x="120" y="108" as="sourcePoint" />
            <mxPoint x="270" y="108" as="targetPoint" />
          </mxGeometry>
        </mxCell>
        <mxCell id="DqPGgn72jeOy-Wrfr4Ys-6" value="xInput != 0" style="text;html=1;align=center;verticalAlign=middle;whiteSpace=wrap;rounded=0;" vertex="1" parent="2a3bc250acf0617d-7">
          <mxGeometry x="155" y="70" width="60" height="30" as="geometry" />
        </mxCell>
        <mxCell id="DqPGgn72jeOy-Wrfr4Ys-7" value="xInput == 0" style="text;html=1;align=center;verticalAlign=middle;whiteSpace=wrap;rounded=0;" vertex="1" parent="2a3bc250acf0617d-7">
          <mxGeometry x="155" y="120" width="65" height="30" as="geometry" />
        </mxCell>
      </root>
    </mxGraphModel>
  </diagram>
</mxfile>
